<?xml version="1.0" encoding="utf-8"?>
<!-- Generator: Adobe Illustrator 24.0.1, SVG Export Plug-In . SVG Version: 6.00 Build 0)  -->
<svg version="1.1" id="Capa_1" xmlns="http://www.w3.org/2000/svg" xmlns:xlink="http://www.w3.org/1999/xlink" x="0px" y="0px"
	 viewBox="0 0 512 512" style="enable-background:new 0 0 512 512;" xml:space="preserve">
<style type="text/css">
	.st0{fill:url(#SVGID_1_);}
	.st1{fill:#E63548;}
	.st2{fill:#FF6C81;}
	.st3{fill:url(#SVGID_2_);}
	.st4{fill:url(#SVGID_3_);}
	.st5{fill:#FFFFFF;}
</style>
<linearGradient id="SVGID_1_" gradientUnits="userSpaceOnUse" x1="127.534" y1="495.0517" x2="709.314" y2="1076.8318" gradientTransform="matrix(1.0039 0 0 1.0039 0.3831 -277.9886)">
	<stop  offset="0" style="stop-color:#FFB92D"/>
	<stop  offset="1" style="stop-color:#F59500"/>
</linearGradient>
<path className="st0" d="M437.3,511.9H74.7c-55.5,0-91.5-58.4-66.7-108L189.3,41.3c27.5-55,106-55,133.5,0L504,403.9
	C528.8,453.5,492.8,511.9,437.3,511.9z"/>
<path className="st1" d="M437.3,511.9H74.7c-55.5,0-91.5-58.4-66.7-108L189.3,41.3c27.5-55,106-55,133.5,0L504,403.9
	C528.8,453.5,492.8,511.9,437.3,511.9z"/>
<path className="st2" d="M486.1,412.9L304.8,50.3c-9.4-18.9-27.7-30.1-48.8-30.1s-39.3,11.3-48.8,30.1L25.9,412.9
	c-8.5,17-7.6,36.9,2.4,53.1c10,16.2,27.4,25.9,46.4,25.9h362.6c19,0,36.4-9.7,46.4-25.9C493.7,449.8,494.6,429.9,486.1,412.9z
	 M466.6,455.4c-6.3,10.2-17.3,16.3-29.3,16.3H74.7c-12,0-23-6.1-29.3-16.3c-6.3-10.2-6.9-22.8-1.5-33.5L225.2,59.3
	c6.1-12.1,17.3-19,30.8-19c13.5,0,24.8,6.9,30.8,19l181.3,362.6C473.5,432.6,472.9,445.2,466.6,455.4z"/>
<linearGradient id="SVGID_2_" gradientUnits="userSpaceOnUse" x1="421.1401" y1="687.0056" x2="137.0501" y2="402.9157" gradientTransform="matrix(1.0039 0 0 1.0039 0.3831 -277.9886)">
	<stop  offset="0" style="stop-color:#BE3F45;stop-opacity:0"/>
	<stop  offset="1" style="stop-color:#BE3F45"/>
</linearGradient>
<path className="st3" d="M437.3,511.9h-28.6l-165-165c-4.9-2.4-7.3-6.5-7.3-12.4c0-22.3-0.9-38.1-2.7-88.5c-1.8-50.4-2.7-60.7-2.7-83
	c0-7.1,2.4-12.6,7.3-16.5c4.8-3.9,11.1-5.8,18.8-5.8c7.7,0,13.3,2,16.9,6c0.7,0.8,151.1,151.2,203.1,203.1l27.1,54.2
	C528.8,453.5,492.8,511.9,437.3,511.9z"/>
<linearGradient id="SVGID_3_" gradientUnits="userSpaceOnUse" x1="329.152" y1="758.1638" x2="236.482" y2="665.4837" gradientTransform="matrix(1.0039 0 0 1.0039 0.3831 -277.9886)">
	<stop  offset="0" style="stop-color:#BE3F45;stop-opacity:0"/>
	<stop  offset="1" style="stop-color:#BE3F45"/>
</linearGradient>
<path className="st4" d="M397,511.9h-74.7l-85.6-85.6c-5.7-5-8.5-10.9-8.5-17.6c0-7,2.9-12.9,8.5-17.8s12.6-7.3,20.7-7.3
	c7.2,0,13.4,2.4,18.6,7.3L397,511.9z"/>
<path className="st5" d="M228.2,408.7c0-7,2.8-12.9,8.5-17.8c5.7-4.9,12.6-7.3,20.7-7.3c7.2,0,13.4,2.4,18.6,7.3
	c5.2,4.9,7.8,10.8,7.8,17.8c0,6.7-2.6,12.6-7.8,17.6c-5.2,5-11.4,7.5-18.6,7.5c-8.1,0-15-2.5-20.7-7.5
	C231,421.3,228.2,415.4,228.2,408.7z M230.9,162.9c0-7.1,2.4-12.6,7.3-16.5c4.8-3.9,11.1-5.8,18.8-5.8c7.7,0,13.3,2,16.9,6
	c3.6,4,5.4,9.4,5.4,16.2c0,22.3-0.4,32.6-1.1,83c-0.8,50.4-1.1,66.3-1.1,88.5c0,4.6-2.2,8.3-6.5,10.9c-4.4,2.6-8.9,3.9-13.5,3.9
	c-13.7,0-20.6-4.9-20.6-14.8c0-22.3-0.9-38.1-2.7-88.5C231.8,195.5,230.9,185.2,230.9,162.9z"/>
</svg>
