<?xml version="1.0" encoding="utf-8"?>
<!-- Generator: Adobe Illustrator 22.1.0, SVG Export Plug-In . SVG Version: 6.00 Build 0)  -->
<svg version="1.1" id="Capa_1" xmlns="http://www.w3.org/2000/svg" xmlns:xlink="http://www.w3.org/1999/xlink" x="0px" y="0px"
	 viewBox="0 0 512 512" style="enable-background:new 0 0 512 512;" xml:space="preserve">
<style type="text/css">
	.st0{fill:#DF2237;}
</style>
<path class="st0" d="M343.7,122c-8.6,0-15.6-7-15.6-15.6V0H198.2c-8.6,0-15.6,7-15.6,15.6v71.9H225c4.2,0,8.1,1.7,11,4.6l122,122
	c2.7,2.7,4.6,6.7,4.6,11v192.8h71.9c8.6,0,15.6-7,15.6-15.6V122H343.7z"/>
<path class="st0" d="M359.2,22v68.9h68.9L359.2,22z"/>
<path class="st0" d="M209.5,225.1V118.6H79.6c-8.6,0-15.6,7-15.6,15.6v362.2c0,8.6,7,15.6,15.6,15.6h236.3c8.6,0,15.6-7,15.6-15.6
	V240.6H225C216.4,240.6,209.5,233.7,209.5,225.1z"/>
<path class="st0" d="M240.6,209.5h68.9l-68.9-68.9V209.5z"/>
</svg>
