<?xml version="1.0" encoding="utf-8"?>
<!-- Generator: Adobe Illustrator 24.0.1, SVG Export Plug-In . SVG Version: 6.00 Build 0)  -->
<svg version="1.1" id="Capa_1" xmlns="http://www.w3.org/2000/svg" xmlns:xlink="http://www.w3.org/1999/xlink" x="0px" y="0px"
	 viewBox="0 0 710 226" style="enable-background:new 0 0 710 226;" xml:space="preserve">
<style type="text/css">
	.st0{fill:#DF2237;}
	.st1{fill:#556271;}
	.st2{fill:#B2B6BD;}
	.st3{fill:#DF2539;}
</style>
<g>
	<path class="st0" d="M423.5,136.8c-12.3,22.1-24.5,44.1-36.8,66.2c-2.5,4.5-5,8.9-7.5,13.3c-4.4,7.8-12.5,11-21,8.2
		c-2.7-0.9-3.2-3-3.5-5.4c-5-38.1-10.1-76.2-15.2-114.3c-0.6-4.2,0.4-6.2,5.2-6.4c18.4-0.7,18.3-0.9,20.2,19.1
		c2.3,23.9,5,47.7,7.6,72.1c2.6-1.4,3.1-3.7,4.1-5.6c14.5-26.6,29-53.3,43.5-80c2.8-5.1,15.5-8.5,20.4-5.4c2.4,1.5,2,4,2.2,6.3
		c3.1,26.8,6.1,53.6,9.2,80.4c0.1,1.2,0.5,2.4,1.1,5.2c1.6-3,2.7-4.9,3.7-6.7c13.9-26,28.1-51.9,41.7-78.1c2.9-5.6,6.2-7.5,12.3-7.3
		c14.8,0.4,14.8,0.1,7.5,13.2c-20,35.7-40,71.5-60,107.2c-2.9,5.1-16.4,8.5-21.2,5.3c-2-1.4-1.8-3.7-2-5.8
		c-3.5-27.1-6.9-54.2-10.4-81.3C424.4,136.9,423.9,136.8,423.5,136.8z"/>
	<path class="st1" d="M267.1,142.2c2.5-0.5,3.7-2.7,5.4-4.2c7.9-6.6,16.9-10.6,27.4-10.5c18.7,0.2,29.1,12.4,26.3,30.9
		c-1.2,7.5-2.9,15-4.5,22.5c-2.6,12.7-5.4,25.3-8,38c-0.8,4-2.3,6.2-7,6.3c-16.4,0.2-16.5,0.4-13.1-15.8c2.6-12.9,5.5-25.7,8.2-38.6
		c1.5-7.3,2.4-14.9-4.5-19.9c-7.3-5.3-15.4-4-22.9,0.1c-8,4.3-12.1,11.7-13.9,20.3c-3.4,15.8-6.9,31.5-10.1,47.3
		c-0.9,4.6-2.6,6.4-7.4,6.5c-16.2,0.1-16.3,0.3-12.9-15.4c5.3-24.7,10.8-49.3,15.8-74.1c1-4.9,3-6.6,7.6-5.9c0.6,0.1,1.3,0,1.9,0
		C268.2,129.7,268.2,129.7,267.1,142.2z"/>
	<path class="st0" d="M581.3,147.6c3.1-0.4,3.9-3,5.3-4.6c7.3-8.1,15.9-14,27.1-15.2c4.5-0.5,6.1,0.8,4.6,5.2
		c-0.3,1-0.5,2.1-0.7,3.1c-1.3,8.7-2.7,15.1-14.6,16.7c-15.9,2.1-24.6,15.1-28.7,30.1c-3.2,11.9-5.5,24-8,36c-0.8,4.1-2.2,6-7,5.9
		c-16.5-0.2-16.5,0.1-13.1-16.2c5.1-24.1,10.3-48.1,15.3-72.2c1-5,3.2-7.2,8.6-6.9c16.9,0.8,15.9-3.5,11.8,15.2
		C581.9,145.6,581.6,146.5,581.3,147.6z"/>
	<path class="st0" d="M515.7,225.3c-11.1,0-11.1,0-8.8-10.8c5.5-25.9,11.1-51.8,16.6-77.7c1-5,3.2-7.1,8.6-7c15,0.2,15,0,11.9,14.6
		c-5,23.4-10,46.8-15,70.3C526.3,227.1,528.1,225.1,515.7,225.3z"/>
	<path class="st2" d="M423.5,52.3c-2-6.3-3.9-12.6-5.9-18.8c-2.5-7.9-5.1-15.7-7.7-23.6c-0.8-2.4-1.3-4.2,2.2-5.3
		c3.4-1.1,4,0.6,4.8,3c5.2,16.4,10.3,32.8,15.9,49c1.7,4.8-0.4,5.7-4.1,6.9c-30.5,9.7-61,19.6-91.5,29.4c-4.6,1.5-9.4,2.8-13.9,4.4
		c-3.4,1.2-4.9,0.4-6.1-3c-1.4-4.1,1.6-4.2,3.8-4.9C353,79,385.2,68.6,417.3,58.3C420.3,57.3,423.6,56.6,423.5,52.3z"/>
	<path class="st3" d="M539.6,115.5c-14.3,0-12,0.8-9.9-12.3c1-6.6,3.8-9.2,10.8-9c15,0.5,15.1,0.1,11.9,14.7
		C551,115.5,551,115.5,539.6,115.5z"/>
	<path class="st1" d="M198.6,128.7c-11.9-1.1-23.7-0.5-35.3,3.3c-11.2,3.7-11,3.5-10.2,14.8c0.4,5.8,2.2,6.7,7.5,4.8
		c9.9-3.6,20.1-5.5,30.6-2.7c7.9,2,11.1,6.9,10.9,14.9c-0.1,4.8-1.3,6.4-6.3,4.5c-3.7-1.4-7.9-1.9-11.9-2.2
		c-16.1-1.1-30.9,1.2-43.8,12.7c-27,24.2,9.3,68.9,51.4,34.5c-0.7,3.6-1.1,5.6-1.5,7.7c-0.4,2.3,0.2,3.9,2.7,3.9
		c5.1,0,10.2,0,15.3-0.1c2.3-0.1,3.2-1.6,3.7-3.7c4.1-20.2,9-40.2,12.3-60.5C227,142.6,216.7,130.4,198.6,128.7z M197.4,189.8
		c-3.1,12.3-14.6,20.5-29.4,20.4c-1.1,0-2.1,0.1-3.2,0c-5.2-0.7-10.3-2.1-12.1-7.7c-1.9-5.6,0.4-10.5,4.3-14.4
		c5.3-5.3,12.2-6.5,19.3-6.9c6-0.3,11.8,0.9,17.6,2.2C197.8,184.3,198.3,186.2,197.4,189.8z"/>
	<path class="st1" d="M112.2,151.6c9.2-5.9,15.3-14,17.9-24.6c4.1-16.8-3.6-29.5-20.3-33.7c-3.9-1-8-1.6-11.9-1.7
		c-20.6-0.3-41.2-0.3-61.8-0.5c-6-0.1-9.5,2.6-10.8,8.6c-8.2,38.6-16.6,77.1-24.8,115.7c-1.2,5.7,1.1,8.8,6.8,8.8
		c23.1,0.1,46.3,0.6,69.4-0.2c15.3-0.5,29.1-5.9,39.3-18.1c15.6-18.6,11.9-38.6-9-49.9c-0.1-0.1-0.2-0.3-0.3-0.6
		C107.9,153.4,110.3,152.9,112.2,151.6z M97.1,142.8c-5,3.1-10.5,4.4-16.3,4.8c-2.3,0.2-4.7,0.1-7,0c-15.1-0.4-15-0.4-17.5,14.5
		c-0.6,3.5,0.1,4.9,4,4.9c8.3,0.1,16.6,0.5,24.8,1c9.2,0.6,15.1,4.4,16.7,10.4c1.8,6.9-2.5,16.4-9.6,20.7c-5.2,3.2-10.9,4.6-17,4.7
		c-7.2,0.1-14.5,0-21.7,0c0-0.1,0-0.1,0-0.2c-7.7,0-15.3-0.1-23,0.1c-3.7,0.1-4.3-1.4-3.6-4.6c6-27.8,12-55.6,17.8-83.4
		c0.7-3.1,2.2-4,5.3-3.9c12.5,0.3,25.1,0.3,37.6,0.4c1.1,0,2.1,0.1,3.2,0.3c9.6,1.2,14.3,4.4,15.5,10.7
		C107.9,130,103.8,138.6,97.1,142.8z"/>
	<path class="st0" d="M663.9,127.2c-22.8,3.9-42.5,24.6-47.7,49.9c-5.6,27.1,8.5,46.1,35.9,48.6c2.1,0,4.3,0,6.4,0
		c12.7-0.9,23.8-5.7,33.7-13.5c2.5-2,6-4.2,2.1-7.5c-3.3-2.7-4.5-10.6-11.7-5.2c-7.9,5.9-16.8,9-26.8,8.1c-10.6-0.9-18-8-19.1-18
		c-0.5-4.6,0.5-6.3,5.6-6.2c19.3,0.3,38.7,0,58,0.2c5.1,0.1,7.5-1.9,8-6.8c0.2-1.7,0.7-3.3,0.9-5C714,140.8,694.8,121.9,663.9,127.2
		z M688.4,165.7c-0.3,2.7-1.2,3.8-3.9,3.6c-0.8-0.1-1.7,0-2.5,0c-13.8,0-27.6,0-42.5,0c5.4-13.1,12.7-22.3,26.3-24.8
		C679.2,142.1,689.6,152,688.4,165.7z"/>
	<path class="st0" d="M414,46.7c-4.2-13.1-8.3-26.2-12.6-39.4c-1.1-3.3-3.1-3.9-6.4-2.8c-34.3,11.1-68.5,22.1-102.9,33
		c-3.8,1.2-5.1,3-3.8,7c4.1,12.5,8.1,25,12,37.5c1.1,3.4,2.9,4.9,6.6,3.4c4.1-1.6,8.5-2.7,12.7-4.1c29.5-9.4,58.9-18.8,88.3-28.4
		c2.6-0.8,6.2-1,6.3-5C414.3,47.5,414.1,47.1,414,46.7z M302.4,58.7c-0.8,0.3-1.6,0.6-2.6,1c-3.3-1-2.6-4.3-3.7-6.6
		c-1.4-3,0.8-3.5,3-4.1c16-5.1,31.9-10.2,47.9-15.4c16.2-5.2,32.3-10.4,48.4-15.7c3.5-1.2,4.9-0.2,5.7,3.3c0.7,3,2.3,5.3-2.3,6.7
		C366.6,38,334.5,48.4,302.4,58.7z M396.9,49.3c-3.3,0.7-3.6-2.9-3.6-4.7c0.2-4.7,4.8-3.9,7.6-4.4c3.2-0.6,2.3,3.2,3.7,5.1
		C403.2,48.9,399.6,48.8,396.9,49.3z"/>
</g>
</svg>
