<?xml version="1.0" encoding="utf-8"?>
<!-- Generator: Adobe Illustrator 24.0.1, SVG Export Plug-In . SVG Version: 6.00 Build 0)  -->
<svg version="1.1" id="Layer_1" xmlns="http://www.w3.org/2000/svg" xmlns:xlink="http://www.w3.org/1999/xlink" x="0px" y="0px"
	 viewBox="0 0 300 300" style="enable-background:new 0 0 300 300;" xml:space="preserve">
<style type="text/css">
	.st0{fill:#FFFFFF;}
	.st1{fill:#E63548;}
</style>
<rect x="51" y="67.1" className="st0" width="196" height="169.9"/>
<g>
	<g>
		<g>
			<polygon className="st1" points="127.6,119.3 114.3,132.5 136.7,154.9 114.3,177.3 127.6,190.6 150,168.2 172.4,190.6 185.7,177.3 
				163.3,154.9 185.7,132.5 172.4,119.3 150,141.7 			"/>
			<path className="st1" d="M150,0C67.2,0,0,67.2,0,150s67.2,150,150,150s150-67.2,150-150S232.8,0,150,0z M150,232.9
				c-77.2,0-82.7-130.6-82.7-130.6L150,67.1h0l82.7,35.2C232.7,102.3,227.2,232.9,150,232.9z"/>
		</g>
	</g>
</g>
</svg>
